<?xml version="1.0" encoding="UTF-8" standalone="no"?>
<!-- Created with Inkscape (http://www.inkscape.org/) -->

<svg
   width="48"
   height="48"
   viewBox="0 0 12.7 12.7"
   version="1.1"
   id="svg1"
   xml:space="preserve"
   inkscape:version="1.3 (0e150ed6c4, 2023-07-21)"
   xmlns:inkscape="http://www.inkscape.org/namespaces/inkscape"
   xmlns:sodipodi="http://sodipodi.sourceforge.net/DTD/sodipodi-0.dtd"
   xmlns="http://www.w3.org/2000/svg"
   xmlns:svg="http://www.w3.org/2000/svg"><sodipodi:namedview
     id="namedview1"
     pagecolor="#ffffff"
     bordercolor="#000000"
     borderopacity="0.25"
     inkscape:showpageshadow="2"
     inkscape:pageopacity="0.0"
     inkscape:pagecheckerboard="0"
     inkscape:deskcolor="#d1d1d1"
     inkscape:document-units="mm"
     inkscape:zoom="11.822492"
     inkscape:cx="69.951411"
     inkscape:cy="22.37261"
     inkscape:window-width="3440"
     inkscape:window-height="1369"
     inkscape:window-x="-8"
     inkscape:window-y="-8"
     inkscape:window-maximized="1"
     inkscape:current-layer="layer1" /><defs
     id="defs1">&#10;		&#10;		&#10;	</defs><g
     inkscape:label="Layer 1"
     inkscape:groupmode="layer"
     id="layer1"><g
       style="fill:#000000"
       id="g1"
       transform="matrix(0.02446415,0,0,0.02446415,0.42550384,0.51493153)"><g
         id="g3">&#10;	<path
   d="m 460.985,69.644 h -33.728 c 1.645,-14.645 3.057,-29.312 4.392,-43.996 1.376,-15.077 -22.104,-14.939 -23.465,0 -0.808,8.843 -1.641,17.679 -2.529,26.507 -47.844,-77.233 -173.488,-68.616 -199.196,25.365 -22.167,-0.249 -44.445,1.742 -66.838,5.741 -6.513,1.166 -8.965,6.147 -8.419,11.164 -0.015,0.038 -0.043,0.059 -0.059,0.094 -4.304,9.11 -6.556,18.679 -6.416,28.584 -28.479,8.366 -54.562,22.937 -72.688,46.943 -16.696,22.117 -32.103,56.096 -35.795,83.726 -11.164,83.649 36.36,169.695 109.747,208.943 85.996,45.991 203.546,25.323 264.237,-51.653 57.087,-72.382 47.195,-173.4 -18.829,-236.055 -19.967,-18.949 -52.161,-33.944 -77.789,-44.072 1.325,-9.615 1.315,-19.261 0.192,-29.036 -0.086,-0.756 -0.229,-1.493 -0.411,-2.211 -0.142,-4.52 -2.625,-8.907 -8.206,-10.57 C 267.128,83.73 248.999,80.328 230.792,78.645 255.602,9.429 355.744,2.2 389.132,69.633 h -36.668 c -15.133,0 -15.133,23.465 0,23.465 h 48.373 c -1.041,7.333 -2.22,14.65 -3.509,21.955 -0.163,0.437 -0.351,0.858 -0.447,1.325 -1.392,6.857 -3.012,13.67 -4.397,20.535 -1.27,6.259 1.722,12.652 8.19,14.434 5.845,1.607 13.162,-1.924 14.438,-8.196 1.091,-5.393 2.305,-10.758 3.457,-16.135 0.401,-0.874 0.742,-1.826 0.939,-2.927 1.879,-10.296 3.418,-20.632 4.835,-30.986 h 36.652 c 15.122,0.006 15.122,-23.459 -0.01,-23.459 z M 359.359,195.925 c 32.383,30.732 47.799,73.811 45.159,117.923 C 398.287,417.779 293.34,470.666 199.936,461.21 110.77,452.193 45.394,374.978 38.8,287.977 33.674,220.356 75.354,154.122 144.94,142.988 c 73.483,-11.759 158.836,0.202 214.419,52.937 z m -88.467,-86.29 c 0.248,4.53 0.319,9.046 -0.046,13.545 -22.265,-6.36 -45.382,-9.501 -68.594,-9.76 -17.46,-0.198 -35.843,0.978 -53.887,4.159 0.401,-3.832 1.328,-7.597 3.037,-11.214 0.218,-0.465 0.371,-0.942 0.541,-1.415 40.143,-6.469 79.635,-5.71 118.949,4.685 z"
   id="path1" />&#10;</g></g><text
       xml:space="preserve"
       style="font-size:7.87942px;font-family:'Goudy Old Style';-inkscape-font-specification:'Goudy Old Style, Normal';fill:#000000;stroke-width:0.738691"
       x="3.5588622"
       y="8.6953487"
       id="text5"
       transform="matrix(1.0108358,0.27469553,-0.13376753,0.9529289,0,0)"><tspan
         sodipodi:role="line"
         id="tspan5"
         style="font-style:normal;font-variant:normal;font-weight:normal;font-stretch:normal;font-family:'Old English Text MT';-inkscape-font-specification:'Old English Text MT';stroke-width:0.738691"
         x="3.5588622"
         y="8.6953487">F</tspan></text></g></svg>
